<svg xmlns="http://www.w3.org/2000/svg" width="204" height="204" viewBox="0 0 204 204" fill="none">
  <path d="M188 70C193 68 199 71 201 77C207 98 205 121 199 141C189 165 171 184 147 195C124 206 97 208 73 200C49 192 28 176 15 153C3 131 -1 105 5 81C11 56 26 34 47 19C68 5 94 -1 119 3C141 6 161 16 177 32C181 36 180 42 176 46C171 50 164 49 160 45C148 33 132 26 115 23C95 20 76 25 59 36C42 46 30 64 25 84C20 104 23 125 34 143C44 161 60 174 79 180C99 186 120 185 138 176C156 168 171 152 178 134C185 119 186 102 183 86C181 80 184 74 188 70Z" fill="url(#pinkBlackGradient)"/>

  <text x="50%" y="55%" text-anchor="middle" dominant-baseline="middle" font-size="36" font-family="Arial" fill="url(#pinkBlackGradient)">90%</text>

  <defs>
    <linearGradient id="pinkBlackGradient" gradientTransform="rotate(90.21)">
      <stop offset="0%" stop-color="#c11b63"/>
      <stop offset="100%" stop-color="#000000"/>
    </linearGradient>
  </defs>
</svg>
