<svg xmlns="http://www.w3.org/2000/svg" width="204" height="204" viewBox="0 0 204 204" fill="none">
  <path d="M188 70C193 68 199 71 200 76C206 97 205 120 198 141C188 165 170 184 146 195C123 206 96 207 72 199C48 191 27 175 14 153C2 130 -2 104 4 80C10 55 25 33 46 18C67 4 93 -2 118 2C140 5 160 15 176 31C180 35 179 41 175 45C170 49 163 48 159 44C147 33 131 25 115 22C95 19 75 24 58 35C41 46 29 64 24 84C19 103 22 124 33 142C43 160 59 173 78 179C98 185 119 184 137 176C155 167 170 152 177 134C184 118 185 101 182 85C180 79 183 73 188 70Z" fill="url(#pinkBlackGradient)"/>

  <text x="50%" y="55%" text-anchor="middle" dominant-baseline="middle" font-size="36" font-family="Arial" fill="url(#pinkBlackGradient)">70%</text>

  <defs>
    <linearGradient id="pinkBlackGradient" gradientTransform="rotate(90.21)">
      <stop offset="0%" stop-color="#c11b63"/>
      <stop offset="100%" stop-color="#000000"/>
    </linearGradient>
  </defs>
</svg>
