<svg xmlns="http://www.w3.org/2000/svg" width="204" height="204" viewBox="0 0 204 204" fill="none">
  <path d="M188 70C194 68 200 72 201 77C207 99 206 122 200 142C190 166 172 185 148 196C125 207 98 209 74 201C50 193 29 177 16 154C4 132 0 106 6 82C12 57 27 35 48 20C69 6 95 0 120 4C142 7 162 17 178 33C182 37 181 43 177 47C172 51 165 50 161 46C149 34 133 27 116 24C96 21 77 26 60 37C43 47 31 65 26 85C21 105 24 126 35 144C45 162 61 175 80 181C100 187 121 186 139 177C157 169 172 153 179 135C186 120 187 103 184 87C182 81 185 75 188 70Z" fill="url(#pinkBlackGradient)"/>

  <text x="50%" y="55%" text-anchor="middle" dominant-baseline="middle" font-size="36" font-family="Arial" fill="url(#pinkBlackGradient)">95%</text>

  <defs>
    <linearGradient id="pinkBlackGradient" gradientTransform="rotate(90.21)">
      <stop offset="0%" stop-color="#c11b63"/>
      <stop offset="100%" stop-color="#000000"/>
    </linearGradient>
  </defs>
</svg>
