<svg width="64" height="64" viewBox="0 0 64 64" xmlns="http://www.w3.org/2000/svg" aria-label="GitHub">
  <defs>
    <linearGradient id="gradGitHub" x1="0" y1="0" x2="64" y2="64">
      <stop offset="0" stop-color="#e44b8d"/>
      <stop offset="1" stop-color="#000000"/>
    </linearGradient>
    <filter id="glowGit" x="-50%" y="-50%" width="200%" height="200%">
      <feGaussianBlur in="SourceGraphic" stdDeviation="1.8" result="blur"/>
      <feMerge>
        <feMergeNode in="blur"/>
        <feMergeNode in="SourceGraphic"/>
      </feMerge>
    </filter>
  </defs>
  <circle cx="32" cy="32" r="28" stroke="url(#gradGitHub)" stroke-width="3" fill="none" filter="url(#glowGit)"/>
  <path d="M32 16c-8.8 0-16 7.2-16 16 0 7.1 4.6 13.1 11 15.2v-3.8c-4.6 1-5.6-2.2-5.6-2.2-.8-2-2-2.5-2-2.5-1.6-1.1.1-1.1.1-1.1 1.8.1 2.7 1.9 2.7 1.9 1.6 2.7 4.1 1.9 5.1 1.5.2-1.2.6-1.9 1-2.4-3.7-.4-7.6-1.9-7.6-8.4 0-1.9.7-3.5 1.9-4.8-.2-.5-.8-2.3.2-4.7 0 0 1.5-.5 5 1.9a17.1 17.1 0 0 1 9 0c3.5-2.4 5-1.9 5-1.9 1 2.4.4 4.2.2 4.7 1.2 1.3 1.9 2.9 1.9 4.8 0 6.5-3.9 8-7.6 8.4.6.5 1.1 1.5 1.1 3v4.5c6.4-2.1 11-8.1 11-15.2 0-8.8-7.2-16-16-16z"
        fill="url(#gradGitHub)" filter="url(#glowGit)"/>
</svg>
